<?xml version="1.0" encoding="UTF-8"?>
<svg xmlns="http://www.w3.org/2000/svg" xmlns:xlink="http://www.w3.org/1999/xlink" viewBox="0 25.1 130.6 35">
<defs>
<clipPath id="clip-0">
<path clip-rule="nonzero" d="M 85 25.277344 L 108 25.277344 L 108 59 L 85 59 Z M 85 25.277344 "/>
</clipPath>
<clipPath id="clip-1">
<path clip-rule="nonzero" d="M 109 25.277344 L 130.5 25.277344 L 130.5 59 L 109 59 Z M 109 25.277344 "/>
</clipPath>
</defs>
<path fill-rule="nonzero" fill="rgb(9.306335%, 8.670044%, 8.616638%)" fill-opacity="1" d="M 3.699219 29.40625 L 10.320312 29.40625 L 10.320312 35.339844 L 16.773438 35.339844 L 16.773438 40.71875 L 10.320312 40.71875 L 10.320312 49.277344 C 10.320312 51.941406 12.085938 53.449219 16.773438 52.199219 L 16.773438 57.707031 C 7.398438 59.640625 3.699219 55.597656 3.699219 49.449219 L 3.699219 40.71875 L 0 40.71875 L 0 35.339844 L 3.699219 35.339844 L 3.699219 29.40625 "/>
<path fill-rule="nonzero" fill="rgb(85.995483%, 25.062561%, 50.793457%)" fill-opacity="1" d="M 32.609375 60 C 31.683594 60 30.9375 59.660156 30.378906 58.984375 C 29.816406 58.308594 29.539062 57.292969 29.539062 55.9375 C 29.539062 54.289062 29.523438 53.023438 29.496094 52.144531 C 29.46875 51.265625 29.355469 50.671875 29.15625 50.367188 C 28.957031 50.0625 28.609375 49.988281 28.113281 50.148438 C 27.886719 50.238281 27.535156 50.46875 27.0625 50.839844 C 26.589844 51.210938 26.054688 51.648438 25.46875 52.144531 C 24.882812 52.640625 24.292969 53.125 23.707031 53.601562 C 23.117188 54.074219 22.59375 54.457031 22.140625 54.75 C 21.25 55.269531 20.476562 55.429688 19.820312 55.226562 C 19.167969 55.023438 18.671875 54.605469 18.34375 53.972656 C 18.007812 53.339844 17.894531 52.65625 18 51.925781 C 18.105469 51.191406 18.480469 50.5625 19.125 50.042969 C 19.75 49.527344 20.429688 49.039062 21.15625 48.589844 C 21.890625 48.136719 22.605469 47.699219 23.308594 47.269531 C 24.007812 46.816406 24.644531 46.460938 25.214844 46.203125 C 25.78125 45.941406 26.066406 45.6875 26.066406 45.441406 C 26.066406 45.28125 25.867188 45.097656 25.46875 44.882812 C 25.070312 44.667969 24.554688 44.429688 23.917969 44.171875 C 23.28125 43.910156 22.613281 43.636719 21.914062 43.339844 C 21.210938 43.046875 20.535156 42.753906 19.894531 42.460938 C 19.246094 42.121094 18.839844 41.652344 18.667969 41.054688 C 18.5 40.457031 18.464844 39.851562 18.570312 39.242188 C 18.671875 38.632812 18.8125 38.171875 18.980469 37.855469 C 19.457031 36.996094 20.09375 36.449219 20.890625 36.214844 C 21.683594 35.976562 22.492188 36.128906 23.308594 36.671875 C 23.761719 36.941406 24.277344 37.273438 24.855469 37.667969 C 25.4375 38.066406 26.011719 38.449219 26.578125 38.820312 C 27.148438 39.191406 27.648438 39.488281 28.085938 39.699219 C 28.523438 39.914062 28.816406 39.988281 28.96875 39.921875 C 29.101562 39.851562 29.207031 39.671875 29.28125 39.378906 C 29.359375 39.085938 29.425781 38.707031 29.480469 38.246094 C 29.539062 37.78125 29.582031 37.234375 29.609375 36.601562 C 29.636719 35.972656 29.652344 35.292969 29.652344 34.570312 C 29.652344 33.511719 29.910156 32.652344 30.433594 31.996094 C 30.957031 31.34375 31.851562 31.015625 33.121094 31.015625 C 34.089844 31.015625 34.714844 31.328125 35.003906 31.945312 C 35.285156 32.570312 35.410156 33.410156 35.371094 34.46875 C 35.371094 35.078125 35.375 35.660156 35.386719 36.214844 C 35.394531 36.765625 35.421875 37.273438 35.472656 37.738281 C 35.519531 38.199219 35.617188 38.589844 35.769531 38.90625 C 35.921875 39.222656 36.121094 39.433594 36.367188 39.546875 C 36.707031 39.707031 37.152344 39.621094 37.703125 39.292969 C 38.253906 38.96875 38.894531 38.539062 39.625 38.007812 C 40.355469 37.476562 41.15625 36.996094 42.03125 36.570312 C 42.84375 36.183594 43.621094 36.023438 44.363281 36.078125 C 45.101562 36.132812 45.710938 36.511719 46.183594 37.210938 C 46.90625 38.226562 47.152344 39.226562 46.921875 40.207031 C 46.695312 41.191406 46.117188 41.976562 45.1875 42.5625 C 44.847656 42.765625 44.402344 42.980469 43.851562 43.207031 C 43.300781 43.429688 42.75 43.652344 42.199219 43.867188 C 41.652344 44.082031 41.183594 44.292969 40.804688 44.507812 C 40.425781 44.722656 40.226562 44.933594 40.207031 45.136719 C 40.171875 45.453125 40.394531 45.820312 40.875 46.234375 C 41.359375 46.652344 41.878906 47.054688 42.429688 47.4375 C 43.109375 47.957031 43.875 48.601562 44.71875 49.367188 C 45.5625 50.136719 46.183594 50.800781 46.582031 51.363281 C 47.019531 51.996094 47.230469 52.664062 47.222656 53.363281 C 47.210938 54.0625 47.023438 54.671875 46.652344 55.191406 C 46.285156 55.710938 45.765625 56.027344 45.101562 56.140625 C 44.4375 56.253906 43.667969 56.0625 42.796875 55.5625 C 42.324219 55.292969 41.730469 54.761719 41.019531 53.972656 C 40.308594 53.183594 39.476562 52.28125 38.53125 51.265625 C 37.980469 50.699219 37.480469 50.175781 37.035156 49.691406 C 36.589844 49.203125 36.214844 49.121094 35.910156 49.433594 C 35.703125 49.683594 35.589844 50.1875 35.570312 50.941406 C 35.550781 51.699219 35.558594 52.550781 35.597656 53.5 C 35.636719 54.445312 35.628906 55.339844 35.570312 56.175781 C 35.511719 57.347656 35.246094 58.277344 34.773438 58.96875 C 34.300781 59.65625 33.578125 60 32.609375 60 "/>
<path fill-rule="nonzero" fill="rgb(9.306335%, 8.670044%, 8.616638%)" fill-opacity="1" d="M 49.175781 35.339844 L 55.796875 35.339844 L 55.796875 37.878906 C 57.171875 36.03125 59.324219 34.910156 61.90625 34.910156 C 64.65625 34.910156 66.894531 36.15625 68.269531 38.222656 C 69.734375 36.15625 72.183594 34.910156 75.109375 34.910156 C 80.140625 34.910156 83.667969 38.351562 83.667969 43.253906 L 83.667969 57.792969 L 77.042969 57.792969 L 77.042969 44.113281 C 77.042969 41.964844 75.539062 40.460938 73.347656 40.460938 C 71.28125 40.460938 69.734375 41.964844 69.734375 44.15625 L 69.734375 57.792969 L 63.109375 57.792969 L 63.109375 44.113281 C 63.109375 41.964844 61.605469 40.460938 59.453125 40.460938 C 57.347656 40.460938 55.796875 41.964844 55.796875 44.15625 L 55.796875 57.792969 L 49.175781 57.792969 L 49.175781 35.339844 "/>
<g clip-path="url(#clip-0)">
<path fill-rule="nonzero" fill="rgb(9.306335%, 8.670044%, 8.616638%)" fill-opacity="1" d="M 97.085938 25.277344 L 104.609375 25.277344 L 98.976562 32.71875 L 93.34375 32.71875 Z M 95.234375 53.40625 C 98.332031 53.40625 100.308594 51.210938 100.609375 49.277344 C 99.191406 49.019531 97.816406 48.890625 96.65625 48.890625 C 93.6875 48.890625 92.480469 49.792969 92.480469 51.296875 C 92.480469 52.671875 93.472656 53.40625 95.234375 53.40625 Z M 96.007812 44.414062 C 97.171875 44.414062 98.761719 44.546875 100.609375 44.804688 L 100.609375 43.597656 C 100.609375 41.320312 99.105469 40.070312 96.871094 40.070312 C 94.675781 40.070312 93.257812 41.105469 93.171875 42.953125 L 86.546875 42.953125 C 86.761719 38.480469 90.074219 34.910156 96.871094 34.910156 C 103.277344 34.910156 107.234375 38.179688 107.234375 44.113281 L 107.234375 57.792969 L 100.609375 57.792969 L 100.609375 55.167969 C 98.675781 57.320312 96.050781 58.222656 93.257812 58.222656 C 89 58.222656 85.816406 55.898438 85.816406 51.640625 C 85.816406 47.167969 89.167969 44.414062 96.007812 44.414062 "/>
</g>
<g clip-path="url(#clip-1)">
<path fill-rule="nonzero" fill="rgb(9.306335%, 8.670044%, 8.616638%)" fill-opacity="1" d="M 111.921875 25.277344 L 117.425781 25.277344 L 120.179688 28.804688 L 122.886719 25.277344 L 128.351562 25.277344 L 123.664062 32.71875 L 116.609375 32.71875 Z M 116.4375 50.652344 C 116.652344 52.285156 117.941406 53.363281 120.394531 53.363281 C 122.886719 53.363281 124.050781 52.542969 124.050781 51.382812 C 124.050781 47.167969 110.285156 51.511719 110.285156 42.050781 C 110.285156 38.308594 113.8125 34.910156 120.136719 34.910156 C 126.199219 34.910156 129.425781 37.792969 130.027344 42.480469 L 123.402344 42.480469 C 123.1875 40.804688 121.898438 39.769531 119.921875 39.769531 C 117.941406 39.769531 116.78125 40.589844 116.78125 41.75 C 116.78125 45.921875 130.5 41.40625 130.5 51.039062 C 130.5 54.824219 127.015625 58.222656 120.179688 58.222656 C 113.640625 58.222656 110.414062 55.296875 109.8125 50.652344 L 116.4375 50.652344 "/>
</g>
</svg>
