<svg xmlns="http://www.w3.org/2000/svg" width="1440" height="1840" viewBox="0 0 1440 1840" font-family="Inter, sans-serif">
<rect width="1440" height="1840" fill="#f9f2e8"/>
<g id="header">
<g transform="translate(80,64) scale(2.35) translate(0,-25.1)"><path fill="#181616" d="M 3.699219 29.40625 L 10.320312 29.40625 L 10.320312 35.339844 L 16.773438 35.339844 L 16.773438 40.71875 L 10.320312 40.71875 L 10.320312 49.277344 C 10.320312 51.941406 12.085938 53.449219 16.773438 52.199219 L 16.773438 57.707031 C 7.398438 59.640625 3.699219 55.597656 3.699219 49.449219 L 3.699219 40.71875 L 0 40.71875 L 0 35.339844 L 3.699219 35.339844 L 3.699219 29.40625"/><path fill="#db4082" d="M 32.609375 60 C 31.683594 60 30.9375 59.660156 30.378906 58.984375 C 29.816406 58.308594 29.539062 57.292969 29.539062 55.9375 C 29.539062 54.289062 29.523438 53.023438 29.496094 52.144531 C 29.46875 51.265625 29.355469 50.671875 29.15625 50.367188 C 28.957031 50.0625 28.609375 49.988281 28.113281 50.148438 C 27.886719 50.238281 27.535156 50.46875 27.0625 50.839844 C 26.589844 51.210938 26.054688 51.648438 25.46875 52.144531 C 24.882812 52.640625 24.292969 53.125 23.707031 53.601562 C 23.117188 54.074219 22.59375 54.457031 22.140625 54.75 C 21.25 55.269531 20.476562 55.429688 19.820312 55.226562 C 19.167969 55.023438 18.671875 54.605469 18.34375 53.972656 C 18.007812 53.339844 17.894531 52.65625 18 51.925781 C 18.105469 51.191406 18.480469 50.5625 19.125 50.042969 C 19.75 49.527344 20.429688 49.039062 21.15625 48.589844 C 21.890625 48.136719 22.605469 47.699219 23.308594 47.269531 C 24.007812 46.816406 24.644531 46.460938 25.214844 46.203125 C 25.78125 45.941406 26.066406 45.6875 26.066406 45.441406 C 26.066406 45.28125 25.867188 45.097656 25.46875 44.882812 C 25.070312 44.667969 24.554688 44.429688 23.917969 44.171875 C 23.28125 43.910156 22.613281 43.636719 21.914062 43.339844 C 21.210938 43.046875 20.535156 42.753906 19.894531 42.460938 C 19.246094 42.121094 18.839844 41.652344 18.667969 41.054688 C 18.5 40.457031 18.464844 39.851562 18.570312 39.242188 C 18.671875 38.632812 18.8125 38.171875 18.980469 37.855469 C 19.457031 36.996094 20.09375 36.449219 20.890625 36.214844 C 21.683594 35.976562 22.492188 36.128906 23.308594 36.671875 C 23.761719 36.941406 24.277344 37.273438 24.855469 37.667969 C 25.4375 38.066406 26.011719 38.449219 26.578125 38.820312 C 27.148438 39.191406 27.648438 39.488281 28.085938 39.699219 C 28.523438 39.914062 28.816406 39.988281 28.96875 39.921875 C 29.101562 39.851562 29.207031 39.671875 29.28125 39.378906 C 29.359375 39.085938 29.425781 38.707031 29.480469 38.246094 C 29.539062 37.78125 29.582031 37.234375 29.609375 36.601562 C 29.636719 35.972656 29.652344 35.292969 29.652344 34.570312 C 29.652344 33.511719 29.910156 32.652344 30.433594 31.996094 C 30.957031 31.34375 31.851562 31.015625 33.121094 31.015625 C 34.089844 31.015625 34.714844 31.328125 35.003906 31.945312 C 35.285156 32.570312 35.410156 33.410156 35.371094 34.46875 C 35.371094 35.078125 35.375 35.660156 35.386719 36.214844 C 35.394531 36.765625 35.421875 37.273438 35.472656 37.738281 C 35.519531 38.199219 35.617188 38.589844 35.769531 38.90625 C 35.921875 39.222656 36.121094 39.433594 36.367188 39.546875 C 36.707031 39.707031 37.152344 39.621094 37.703125 39.292969 C 38.253906 38.96875 38.894531 38.539062 39.625 38.007812 C 40.355469 37.476562 41.15625 36.996094 42.03125 36.570312 C 42.84375 36.183594 43.621094 36.023438 44.363281 36.078125 C 45.101562 36.132812 45.710938 36.511719 46.183594 37.210938 C 46.90625 38.226562 47.152344 39.226562 46.921875 40.207031 C 46.695312 41.191406 46.117188 41.976562 45.1875 42.5625 C 44.847656 42.765625 44.402344 42.980469 43.851562 43.207031 C 43.300781 43.429688 42.75 43.652344 42.199219 43.867188 C 41.652344 44.082031 41.183594 44.292969 40.804688 44.507812 C 40.425781 44.722656 40.226562 44.933594 40.207031 45.136719 C 40.171875 45.453125 40.394531 45.820312 40.875 46.234375 C 41.359375 46.652344 41.878906 47.054688 42.429688 47.4375 C 43.109375 47.957031 43.875 48.601562 44.71875 49.367188 C 45.5625 50.136719 46.183594 50.800781 46.582031 51.363281 C 47.019531 51.996094 47.230469 52.664062 47.222656 53.363281 C 47.210938 54.0625 47.023438 54.671875 46.652344 55.191406 C 46.285156 55.710938 45.765625 56.027344 45.101562 56.140625 C 44.4375 56.253906 43.667969 56.0625 42.796875 55.5625 C 42.324219 55.292969 41.730469 54.761719 41.019531 53.972656 C 40.308594 53.183594 39.476562 52.28125 38.53125 51.265625 C 37.980469 50.699219 37.480469 50.175781 37.035156 49.691406 C 36.589844 49.203125 36.214844 49.121094 35.910156 49.433594 C 35.703125 49.683594 35.589844 50.1875 35.570312 50.941406 C 35.550781 51.699219 35.558594 52.550781 35.597656 53.5 C 35.636719 54.445312 35.628906 55.339844 35.570312 56.175781 C 35.511719 57.347656 35.246094 58.277344 34.773438 58.96875 C 34.300781 59.65625 33.578125 60 32.609375 60"/><path fill="#181616" d="M 49.175781 35.339844 L 55.796875 35.339844 L 55.796875 37.878906 C 57.171875 36.03125 59.324219 34.910156 61.90625 34.910156 C 64.65625 34.910156 66.894531 36.15625 68.269531 38.222656 C 69.734375 36.15625 72.183594 34.910156 75.109375 34.910156 C 80.140625 34.910156 83.667969 38.351562 83.667969 43.253906 L 83.667969 57.792969 L 77.042969 57.792969 L 77.042969 44.113281 C 77.042969 41.964844 75.539062 40.460938 73.347656 40.460938 C 71.28125 40.460938 69.734375 41.964844 69.734375 44.15625 L 69.734375 57.792969 L 63.109375 57.792969 L 63.109375 44.113281 C 63.109375 41.964844 61.605469 40.460938 59.453125 40.460938 C 57.347656 40.460938 55.796875 41.964844 55.796875 44.15625 L 55.796875 57.792969 L 49.175781 57.792969 L 49.175781 35.339844"/><path fill="#181616" d="M 97.085938 25.277344 L 104.609375 25.277344 L 98.976562 32.71875 L 93.34375 32.71875 Z M 95.234375 53.40625 C 98.332031 53.40625 100.308594 51.210938 100.609375 49.277344 C 99.191406 49.019531 97.816406 48.890625 96.65625 48.890625 C 93.6875 48.890625 92.480469 49.792969 92.480469 51.296875 C 92.480469 52.671875 93.472656 53.40625 95.234375 53.40625 Z M 96.007812 44.414062 C 97.171875 44.414062 98.761719 44.546875 100.609375 44.804688 L 100.609375 43.597656 C 100.609375 41.320312 99.105469 40.070312 96.871094 40.070312 C 94.675781 40.070312 93.257812 41.105469 93.171875 42.953125 L 86.546875 42.953125 C 86.761719 38.480469 90.074219 34.910156 96.871094 34.910156 C 103.277344 34.910156 107.234375 38.179688 107.234375 44.113281 L 107.234375 57.792969 L 100.609375 57.792969 L 100.609375 55.167969 C 98.675781 57.320312 96.050781 58.222656 93.257812 58.222656 C 89 58.222656 85.816406 55.898438 85.816406 51.640625 C 85.816406 47.167969 89.167969 44.414062 96.007812 44.414062"/><path fill="#181616" d="M 111.921875 25.277344 L 117.425781 25.277344 L 120.179688 28.804688 L 122.886719 25.277344 L 128.351562 25.277344 L 123.664062 32.71875 L 116.609375 32.71875 Z M 116.4375 50.652344 C 116.652344 52.285156 117.941406 53.363281 120.394531 53.363281 C 122.886719 53.363281 124.050781 52.542969 124.050781 51.382812 C 124.050781 47.167969 110.285156 51.511719 110.285156 42.050781 C 110.285156 38.308594 113.8125 34.910156 120.136719 34.910156 C 126.199219 34.910156 129.425781 37.792969 130.027344 42.480469 L 123.402344 42.480469 C 123.1875 40.804688 121.898438 39.769531 119.921875 39.769531 C 117.941406 39.769531 116.78125 40.589844 116.78125 41.75 C 116.78125 45.921875 130.5 41.40625 130.5 51.039062 C 130.5 54.824219 127.015625 58.222656 120.179688 58.222656 C 113.640625 58.222656 110.414062 55.296875 109.8125 50.652344 L 116.4375 50.652344"/></g>
<text x="1360" y="96" font-family="Inter, sans-serif" font-size="15" font-weight="700" font-style="normal" fill="rgba(24,22,22,0.72)" text-anchor="end" letter-spacing="4">DESIGN SYSTEM</text>
<text x="1360" y="120" font-family="Inter, sans-serif" font-size="13" font-weight="400" font-style="normal" fill="rgba(24,22,22,0.52)" text-anchor="end">Brand toolkit · v1.0 · 2026</text>
<text x="80" y="228" font-family="Pepi, Inter, sans-serif" font-size="66" font-weight="300" fill="#181616" letter-spacing="-1">I translate <tspan font-style="italic" fill="#db4082">ideas</tspan> into things.</text>
<line x1="80" y1="270" x2="1360" y2="270" stroke="rgba(24,22,22,0.12)" stroke-width="1"/>
</g>
<text x="80" y="330" font-family="Inter, sans-serif" font-size="13" font-weight="700" font-style="normal" fill="#b13366" text-anchor="start" letter-spacing="2">01 — COLORE</text>
<text x="80" y="364" font-family="Pepi, Inter, sans-serif" font-size="30" font-weight="500" font-style="normal" fill="#181616" text-anchor="start">Palette</text>
<rect x="80.0" y="400" width="167.4" height="96" rx="12" fill="#f9f2e8" stroke="rgba(24,22,22,0.12)" stroke-width="1"/>
<text x="94.0" y="530" font-family="Inter, sans-serif" font-size="15" font-weight="600" font-style="normal" fill="#181616" text-anchor="start">Crema</text>
<text x="94.0" y="550" font-family="monospace" font-size="12.5" font-weight="400" font-style="normal" fill="rgba(24,22,22,0.72)" text-anchor="start">#F9F2E8</text>
<text x="94.0" y="572" font-family="Inter, sans-serif" font-size="11.5" font-weight="400" font-style="normal" fill="rgba(24,22,22,0.72)" text-anchor="start">Sfondo · carta calda</text>
<rect x="265.4" y="400" width="167.4" height="96" rx="12" fill="#fffcf5" stroke="rgba(24,22,22,0.12)" stroke-width="1"/>
<text x="279.42857142857144" y="530" font-family="Inter, sans-serif" font-size="15" font-weight="600" font-style="normal" fill="#181616" text-anchor="start">Surface</text>
<text x="279.42857142857144" y="550" font-family="monospace" font-size="12.5" font-weight="400" font-style="normal" fill="rgba(24,22,22,0.72)" text-anchor="start">#FFFCF5</text>
<text x="279.42857142857144" y="572" font-family="Inter, sans-serif" font-size="11.5" font-weight="400" font-style="normal" fill="rgba(24,22,22,0.72)" text-anchor="start">Card e superfici</text>
<rect x="450.9" y="400" width="167.4" height="96" rx="12" fill="#181616"/>
<text x="464.85714285714283" y="530" font-family="Inter, sans-serif" font-size="15" font-weight="600" font-style="normal" fill="#181616" text-anchor="start">Ink</text>
<text x="464.85714285714283" y="550" font-family="monospace" font-size="12.5" font-weight="400" font-style="normal" fill="rgba(24,22,22,0.72)" text-anchor="start">#181616</text>
<text x="464.85714285714283" y="572" font-family="Inter, sans-serif" font-size="11.5" font-weight="400" font-style="normal" fill="rgba(24,22,22,0.72)" text-anchor="start">Testo · occhi · bande</text>
<rect x="636.3" y="400" width="167.4" height="96" rx="12" fill="#db4082"/>
<text x="650.2857142857142" y="530" font-family="Inter, sans-serif" font-size="15" font-weight="600" font-style="normal" fill="#181616" text-anchor="start">Pink</text>
<text x="650.2857142857142" y="550" font-family="monospace" font-size="12.5" font-weight="400" font-style="normal" fill="rgba(24,22,22,0.72)" text-anchor="start">#DB4082</text>
<text x="650.2857142857142" y="572" font-family="Inter, sans-serif" font-size="11.5" font-weight="400" font-style="normal" fill="rgba(24,22,22,0.72)" text-anchor="start">Il marchio · le cose</text>
<rect x="821.7" y="400" width="167.4" height="96" rx="12" fill="#b13366"/>
<text x="835.7142857142857" y="530" font-family="Inter, sans-serif" font-size="15" font-weight="600" font-style="normal" fill="#181616" text-anchor="start">Pink deep</text>
<text x="835.7142857142857" y="550" font-family="monospace" font-size="12.5" font-weight="400" font-style="normal" fill="rgba(24,22,22,0.72)" text-anchor="start">#B13366</text>
<text x="835.7142857142857" y="572" font-family="Inter, sans-serif" font-size="11.5" font-weight="400" font-style="normal" fill="rgba(24,22,22,0.72)" text-anchor="start">Testo piccolo (AA)</text>
<rect x="1007.1" y="400" width="167.4" height="96" rx="12" fill="#0f96d9"/>
<text x="1021.1428571428571" y="530" font-family="Inter, sans-serif" font-size="15" font-weight="600" font-style="normal" fill="#181616" text-anchor="start">Azure</text>
<text x="1021.1428571428571" y="550" font-family="monospace" font-size="12.5" font-weight="400" font-style="normal" fill="rgba(24,22,22,0.72)" text-anchor="start">#0F96D9</text>
<text x="1021.1428571428571" y="572" font-family="Inter, sans-serif" font-size="11.5" font-weight="400" font-style="normal" fill="rgba(24,22,22,0.72)" text-anchor="start">Tradurre · grafica</text>
<rect x="1192.6" y="400" width="167.4" height="96" rx="12" fill="#0a6da3"/>
<text x="1206.5714285714284" y="530" font-family="Inter, sans-serif" font-size="15" font-weight="600" font-style="normal" fill="#181616" text-anchor="start">Azure deep</text>
<text x="1206.5714285714284" y="550" font-family="monospace" font-size="12.5" font-weight="400" font-style="normal" fill="rgba(24,22,22,0.72)" text-anchor="start">#0A6DA3</text>
<text x="1206.5714285714284" y="572" font-family="Inter, sans-serif" font-size="11.5" font-weight="400" font-style="normal" fill="rgba(24,22,22,0.72)" text-anchor="start">Interazione (AA)</text>
<line x1="80" y1="610" x2="1360" y2="610" stroke="rgba(24,22,22,0.12)" stroke-width="1"/>
<circle cx="92" cy="645" r="7" fill="#db4082"/>
<text x="112" y="650" font-family="Pepi, Inter, sans-serif" font-size="17" font-weight="500" font-style="normal" fill="#181616" text-anchor="start">Pink = le cose fatte</text>
<text x="112" y="672" font-family="Inter, sans-serif" font-size="13" font-weight="400" font-style="normal" fill="rgba(24,22,22,0.72)" text-anchor="start">asterisco · personaggi · sottolineature · accenti</text>
<circle cx="732.0" cy="645" r="7" fill="#0f96d9"/>
<text x="752.0" y="650" font-family="Pepi, Inter, sans-serif" font-size="17" font-weight="500" font-style="normal" fill="#181616" text-anchor="start">Azure = l&#x27;atto di tradurre</text>
<text x="752.0" y="672" font-family="Inter, sans-serif" font-size="13" font-weight="400" font-style="normal" fill="rgba(24,22,22,0.72)" text-anchor="start">traduzioni hero · penna · frecce · hover · focus</text>
<text x="80" y="740" font-family="Inter, sans-serif" font-size="13" font-weight="700" font-style="normal" fill="#b13366" text-anchor="start" letter-spacing="2">02 — TIPOGRAFIA</text>
<text x="80" y="774" font-family="Pepi, Inter, sans-serif" font-size="30" font-weight="500" font-style="normal" fill="#181616" text-anchor="start">Caratteri — Pepi + Inter</text>
<rect x="80.0" y="820" width="302.0" height="150" rx="14" fill="#fffcf5" stroke="rgba(24,22,22,0.12)" stroke-width="1"/>
<text x="102.0" y="898" font-family="Pepi, Inter, sans-serif" font-size="34" font-weight="300" font-style="normal" fill="#181616">Aa</text>
<text x="102.0" y="932" font-family="Inter, sans-serif" font-size="13" font-weight="600" font-style="normal" fill="#181616" text-anchor="start">Pepi Light · 300</text>
<text x="102.0" y="952" font-family="Inter, sans-serif" font-size="11" font-weight="400" font-style="normal" fill="rgba(24,22,22,0.52)" text-anchor="start">font-display</text>
<rect x="406.0" y="820" width="302.0" height="150" rx="14" fill="#fffcf5" stroke="rgba(24,22,22,0.12)" stroke-width="1"/>
<text x="428.0" y="898" font-family="Pepi, Inter, sans-serif" font-size="34" font-weight="300" font-style="italic" fill="#db4082">Aa</text>
<text x="428.0" y="932" font-family="Inter, sans-serif" font-size="13" font-weight="600" font-style="normal" fill="#181616" text-anchor="start">Pepi Light Italic · 300</text>
<text x="428.0" y="952" font-family="Inter, sans-serif" font-size="11" font-weight="400" font-style="normal" fill="rgba(24,22,22,0.52)" text-anchor="start">font-display</text>
<rect x="732.0" y="820" width="302.0" height="150" rx="14" fill="#fffcf5" stroke="rgba(24,22,22,0.12)" stroke-width="1"/>
<text x="754.0" y="898" font-family="Pepi, Inter, sans-serif" font-size="34" font-weight="500" font-style="normal" fill="#181616">Aa</text>
<text x="754.0" y="932" font-family="Inter, sans-serif" font-size="13" font-weight="600" font-style="normal" fill="#181616" text-anchor="start">Pepi Medium · 500</text>
<text x="754.0" y="952" font-family="Inter, sans-serif" font-size="11" font-weight="400" font-style="normal" fill="rgba(24,22,22,0.52)" text-anchor="start">font-display</text>
<rect x="1058.0" y="820" width="302.0" height="150" rx="14" fill="#fffcf5" stroke="rgba(24,22,22,0.12)" stroke-width="1"/>
<text x="1080.0" y="898" font-family="Pepi, Inter, sans-serif" font-size="34" font-weight="900" font-style="normal" fill="#181616">Aa</text>
<text x="1080.0" y="932" font-family="Inter, sans-serif" font-size="13" font-weight="600" font-style="normal" fill="#181616" text-anchor="start">Pepi Black · 900</text>
<text x="1080.0" y="952" font-family="Inter, sans-serif" font-size="11" font-weight="400" font-style="normal" fill="rgba(24,22,22,0.52)" text-anchor="start">font-display</text>
<text x="80" y="1026" font-family="Pepi, Inter, sans-serif" font-size="34" font-weight="300" fill="#181616">Contrasto per <tspan font-style="italic" fill="#db4082">inclinazione</tspan> e colore, mai per peso.</text>
<text x="80" y="1080" font-family="Inter, sans-serif" font-size="13" font-weight="700" font-style="normal" fill="#b13366" text-anchor="start" letter-spacing="2">03 — MARCHIO &amp; TRATTI</text>
<text x="80" y="1114" font-family="Pepi, Inter, sans-serif" font-size="30" font-weight="500" font-style="normal" fill="#181616" text-anchor="start">Asterisco, sottolineatura, freccia</text>
<rect x="80" y="1140" width="300" height="220" rx="16" fill="#fffcf5" stroke="rgba(24,22,22,0.12)" stroke-width="1"/>
<g transform="translate(150,1180) scale(4.7) translate(0,-0.3)"><path fill="#db4082" d="M 14.29 28.61 C 13.38 28.61 12.65 28.28 12.11 27.62 C 11.56 26.96 11.29 25.97 11.29 24.65 C 11.29 23.04 11.28 21.81 11.25 20.95 C 11.22 20.09 11.11 19.52 10.91 19.22 C 10.72 18.92 10.38 18.85 9.90 19.00 C 9.68 19.09 9.34 19.32 8.88 19.68 C 8.41 20.04 7.89 20.46 7.32 20.95 C 6.75 21.43 6.18 21.91 5.60 22.37 C 5.03 22.83 4.52 23.21 4.07 23.49 C 3.20 24 2.45 24.16 1.81 23.96 C 1.18 23.76 0.70 23.35 0.37 22.73 C 0.05 22.12 -0.07 21.45 0.04 20.73 C 0.14 20.02 0.50 19.41 1.13 18.90 C 1.75 18.40 2.41 17.92 3.12 17.48 C 3.83 17.04 4.53 16.61 5.21 16.20 C 5.90 15.75 6.52 15.41 7.07 15.16 C 7.62 14.90 7.91 14.66 7.91 14.41 C 7.91 14.26 7.71 14.08 7.32 13.87 C 6.93 13.66 6.43 13.43 5.81 13.17 C 5.19 12.92 4.54 12.65 3.85 12.36 C 3.17 12.08 2.51 11.79 1.88 11.51 C 1.25 11.18 0.86 10.72 0.69 10.14 C 0.52 9.55 0.49 8.96 0.59 8.37 C 0.70 7.77 0.83 7.32 1.00 7.02 C 1.46 6.18 2.08 5.64 2.86 5.41 C 3.63 5.18 4.42 5.33 5.21 5.86 C 5.66 6.12 6.16 6.45 6.72 6.83 C 7.29 7.22 7.85 7.59 8.40 7.96 C 8.96 8.32 9.45 8.61 9.88 8.81 C 10.30 9.02 10.59 9.09 10.73 9.03 C 10.86 8.96 10.96 8.79 11.04 8.50 C 11.11 8.21 11.18 7.85 11.23 7.39 C 11.29 6.94 11.33 6.41 11.36 5.79 C 11.39 5.18 11.40 4.52 11.40 3.81 C 11.40 2.78 11.66 1.94 12.16 1.30 C 12.67 0.66 13.55 0.34 14.79 0.34 C 15.73 0.34 16.34 0.64 16.62 1.25 C 16.89 1.86 17.02 2.68 16.98 3.71 C 16.98 4.30 16.98 4.88 16.99 5.41 C 17 5.95 17.03 6.45 17.08 6.90 C 17.12 7.35 17.22 7.73 17.37 8.04 C 17.52 8.35 17.71 8.55 17.95 8.66 C 18.29 8.82 18.72 8.74 19.25 8.42 C 19.79 8.10 20.42 7.68 21.13 7.16 C 21.84 6.64 22.62 6.18 23.47 5.76 C 24.27 5.39 25.03 5.23 25.75 5.28 C 26.47 5.34 27.06 5.70 27.52 6.39 C 28.23 7.38 28.47 8.35 28.25 9.31 C 28.02 10.27 27.46 11.03 26.55 11.61 C 26.22 11.80 25.79 12.01 25.25 12.23 C 24.71 12.45 24.18 12.67 23.64 12.88 C 23.11 13.09 22.65 13.29 22.28 13.50 C 21.91 13.71 21.71 13.92 21.70 14.11 C 21.66 14.42 21.88 14.78 22.35 15.19 C 22.82 15.59 23.32 15.99 23.86 16.36 C 24.53 16.87 25.27 17.50 26.10 18.24 C 26.92 18.99 27.52 19.64 27.91 20.19 C 28.34 20.81 28.55 21.46 28.54 22.14 C 28.53 22.82 28.34 23.42 27.98 23.92 C 27.62 24.43 27.12 24.74 26.47 24.85 C 25.82 24.96 25.07 24.77 24.22 24.29 C 23.76 24.02 23.18 23.50 22.49 22.73 C 21.79 21.96 20.98 21.08 20.06 20.09 C 19.52 19.54 19.04 19.03 18.60 18.56 C 18.17 18.08 17.80 18 17.51 18.31 C 17.30 18.55 17.19 19.04 17.18 19.78 C 17.16 20.52 17.16 21.35 17.20 22.27 C 17.24 23.20 17.23 24.07 17.18 24.88 C 17.12 26.03 16.86 26.93 16.40 27.61 C 15.93 28.28 15.23 28.61 14.29 28.61"/></g>
<text x="230" y="1345" font-family="Inter, sans-serif" font-size="12" font-weight="500" font-style="normal" fill="rgba(24,22,22,0.72)" text-anchor="middle">BrandAsterisk · #DB4082</text>
<rect x="404" y="1140" width="480" height="102" rx="16" fill="#fffcf5" stroke="rgba(24,22,22,0.12)" stroke-width="1"/>
<g transform="translate(474,1170) scale(1.6)"><path d="M6 16 C 44 5, 80 22, 116 12 C 150 3, 182 18, 214 10" fill="none" stroke="#db4082" stroke-width="7" stroke-linecap="round" stroke-linejoin="round"/></g>
<text x="424" y="1230" font-family="Inter, sans-serif" font-size="12" font-weight="500" font-style="normal" fill="rgba(24,22,22,0.72)" text-anchor="start">Sottolineatura</text>
<rect x="404" y="1258" width="480" height="102" rx="16" fill="#fffcf5" stroke="rgba(24,22,22,0.12)" stroke-width="1"/>
<g transform="translate(600,1270) scale(1.35)"><path d="M6 40 C 34 12, 68 46, 104 26 M104 26 L 84 18 M104 26 L 90 43" fill="none" stroke="#db4082" stroke-width="6.5" stroke-linecap="round" stroke-linejoin="round"/></g>
<text x="424" y="1348" font-family="Inter, sans-serif" font-size="12" font-weight="500" font-style="normal" fill="rgba(24,22,22,0.72)" text-anchor="start">Freccia idea→cosa</text>
<rect x="908" y="1140" width="452" height="220" rx="16" fill="#fffcf5" stroke="rgba(24,22,22,0.12)" stroke-width="1"/>
<text x="936" y="1182" font-family="Pepi, Inter, sans-serif" font-size="16" font-weight="500" font-style="normal" fill="#181616" text-anchor="start">Regole rapide</text>
<circle cx="944" cy="1208" r="3" fill="#db4082"/>
<text x="958" y="1212" font-family="Inter, sans-serif" font-size="13" font-weight="400" font-style="normal" fill="rgba(24,22,22,0.72)" text-anchor="start">Asterisco sempre pink, mai raddrizzato.</text>
<circle cx="944" cy="1236" r="3" fill="#db4082"/>
<text x="958" y="1240" font-family="Inter, sans-serif" font-size="13" font-weight="400" font-style="normal" fill="rgba(24,22,22,0.72)" text-anchor="start">Occhi dei personaggi in ink #181616.</text>
<circle cx="944" cy="1264" r="3" fill="#db4082"/>
<text x="958" y="1268" font-family="Inter, sans-serif" font-size="13" font-weight="400" font-style="normal" fill="rgba(24,22,22,0.72)" text-anchor="start">Focus ring in azure-deep, offset 3px.</text>
<circle cx="944" cy="1292" r="3" fill="#db4082"/>
<text x="958" y="1296" font-family="Inter, sans-serif" font-size="13" font-weight="400" font-style="normal" fill="rgba(24,22,22,0.72)" text-anchor="start">Selezione testo: sfondo pink, testo crema.</text>
<circle cx="944" cy="1320" r="3" fill="#db4082"/>
<text x="958" y="1324" font-family="Inter, sans-serif" font-size="13" font-weight="400" font-style="normal" fill="rgba(24,22,22,0.72)" text-anchor="start">Un tratto: stroke 7, cap &amp; join round.</text>
<text x="80" y="1410" font-family="Inter, sans-serif" font-size="13" font-weight="700" font-style="normal" fill="#b13366" text-anchor="start" letter-spacing="2">04 — PERSONAGGI</text>
<text x="80" y="1444" font-family="Pepi, Inter, sans-serif" font-size="30" font-weight="500" font-style="normal" fill="#181616" text-anchor="start">La famiglia di doodle</text>
<rect x="80" y="1470" width="410.6666666666667" height="260" rx="16" fill="#fffcf5" stroke="rgba(24,22,22,0.12)" stroke-width="1"/>
<g transform="translate(185.33333333333337,1510) scale(1.55)"><path d="M8 58 C 18 22, 46 24, 54 48 C 61 68, 88 66, 97 42 C 100 34, 104 28, 112 26" fill="none" stroke="#db4082" stroke-width="7" stroke-linecap="round" stroke-linejoin="round"/><circle cx="100" cy="16" r="5.5" fill="#181616"/><circle cx="115" cy="12" r="5.5" fill="#181616"/></g>
<text x="104" y="1680" font-family="Pepi, Inter, sans-serif" font-size="20" font-weight="500" fill="#181616">Viky<tspan font-family="Inter, sans-serif" font-size="13" font-weight="700" fill="#b13366" dx="10">ahoj!</tspan></text>
<text x="104" y="1704" font-family="Inter, sans-serif" font-size="12.5" font-weight="400" font-style="normal" fill="rgba(24,22,22,0.72)" text-anchor="start">L&#x27;onda del footer.</text>
<rect x="514.6666666666667" y="1470" width="410.6666666666667" height="260" rx="16" fill="#fffcf5" stroke="rgba(24,22,22,0.12)" stroke-width="1"/>
<g transform="translate(675.0000000000001,1520) scale(1.5) translate(0,18)"><path d="M26 80 C 10 62, 36 50, 24 32 C 18 23, 22 14, 30 10" fill="none" stroke="#db4082" stroke-width="7" stroke-linecap="round" stroke-linejoin="round"/><path d="M30 10 C 40 8, 46 12, 54 6" fill="none" stroke="#db4082" stroke-width="7" stroke-linecap="round" stroke-linejoin="round"/><circle cx="30" cy="22" r="4.5" fill="#181616"/><circle cx="41" cy="20" r="4.5" fill="#181616"/></g>
<text x="538.6666666666667" y="1680" font-family="Pepi, Inter, sans-serif" font-size="20" font-weight="500" fill="#181616">Elvis<tspan font-family="Inter, sans-serif" font-size="13" font-weight="700" fill="#b13366" dx="10">hi!</tspan></text>
<text x="538.6666666666667" y="1704" font-family="Inter, sans-serif" font-size="12.5" font-weight="400" font-style="normal" fill="rgba(24,22,22,0.72)" text-anchor="start">Saluta accanto all&#x27;About.</text>
<rect x="949.3333333333334" y="1470" width="410.6666666666667" height="260" rx="16" fill="#fffcf5" stroke="rgba(24,22,22,0.12)" stroke-width="1"/>
<g transform="translate(1084.6666666666667,1516) scale(1.5) translate(0,14)"><path d="M50 10 A38 38 0 0 0 50 86 A31 31 0 0 0 50 24 A24 24 0 0 0 50 72 A19 19 0 0 0 50 34 A14 14 0 0 0 50 62" fill="none" stroke="#db4082" stroke-width="7" stroke-linecap="round" stroke-linejoin="round"/><circle cx="48" cy="-3" r="5.5" fill="#181616"/><circle cx="61" cy="-6" r="5.5" fill="#181616"/></g>
<text x="973.3333333333334" y="1680" font-family="Pepi, Inter, sans-serif" font-size="20" font-weight="500" fill="#181616">Ringo<tspan font-family="Inter, sans-serif" font-size="13" font-weight="700" fill="#b13366" dx="10">ciao!</tspan></text>
<text x="973.3333333333334" y="1704" font-family="Inter, sans-serif" font-size="12.5" font-weight="400" font-style="normal" fill="rgba(24,22,22,0.72)" text-anchor="start">La spirale su Selected work.</text>
<line x1="80" y1="1770" x2="1360" y2="1770" stroke="rgba(24,22,22,0.12)" stroke-width="1"/>
<text x="80" y="1800" font-family="Inter, sans-serif" font-size="12.5" font-weight="400" font-style="normal" fill="rgba(24,22,22,0.52)" text-anchor="start">Tomáš Matějček — Design System · tutti i vettori sono modificabili in Illustrator</text>
<g transform="translate(1324,1782) scale(1.05) translate(0,-0.3)"><path fill="#db4082" d="M 14.29 28.61 C 13.38 28.61 12.65 28.28 12.11 27.62 C 11.56 26.96 11.29 25.97 11.29 24.65 C 11.29 23.04 11.28 21.81 11.25 20.95 C 11.22 20.09 11.11 19.52 10.91 19.22 C 10.72 18.92 10.38 18.85 9.90 19.00 C 9.68 19.09 9.34 19.32 8.88 19.68 C 8.41 20.04 7.89 20.46 7.32 20.95 C 6.75 21.43 6.18 21.91 5.60 22.37 C 5.03 22.83 4.52 23.21 4.07 23.49 C 3.20 24 2.45 24.16 1.81 23.96 C 1.18 23.76 0.70 23.35 0.37 22.73 C 0.05 22.12 -0.07 21.45 0.04 20.73 C 0.14 20.02 0.50 19.41 1.13 18.90 C 1.75 18.40 2.41 17.92 3.12 17.48 C 3.83 17.04 4.53 16.61 5.21 16.20 C 5.90 15.75 6.52 15.41 7.07 15.16 C 7.62 14.90 7.91 14.66 7.91 14.41 C 7.91 14.26 7.71 14.08 7.32 13.87 C 6.93 13.66 6.43 13.43 5.81 13.17 C 5.19 12.92 4.54 12.65 3.85 12.36 C 3.17 12.08 2.51 11.79 1.88 11.51 C 1.25 11.18 0.86 10.72 0.69 10.14 C 0.52 9.55 0.49 8.96 0.59 8.37 C 0.70 7.77 0.83 7.32 1.00 7.02 C 1.46 6.18 2.08 5.64 2.86 5.41 C 3.63 5.18 4.42 5.33 5.21 5.86 C 5.66 6.12 6.16 6.45 6.72 6.83 C 7.29 7.22 7.85 7.59 8.40 7.96 C 8.96 8.32 9.45 8.61 9.88 8.81 C 10.30 9.02 10.59 9.09 10.73 9.03 C 10.86 8.96 10.96 8.79 11.04 8.50 C 11.11 8.21 11.18 7.85 11.23 7.39 C 11.29 6.94 11.33 6.41 11.36 5.79 C 11.39 5.18 11.40 4.52 11.40 3.81 C 11.40 2.78 11.66 1.94 12.16 1.30 C 12.67 0.66 13.55 0.34 14.79 0.34 C 15.73 0.34 16.34 0.64 16.62 1.25 C 16.89 1.86 17.02 2.68 16.98 3.71 C 16.98 4.30 16.98 4.88 16.99 5.41 C 17 5.95 17.03 6.45 17.08 6.90 C 17.12 7.35 17.22 7.73 17.37 8.04 C 17.52 8.35 17.71 8.55 17.95 8.66 C 18.29 8.82 18.72 8.74 19.25 8.42 C 19.79 8.10 20.42 7.68 21.13 7.16 C 21.84 6.64 22.62 6.18 23.47 5.76 C 24.27 5.39 25.03 5.23 25.75 5.28 C 26.47 5.34 27.06 5.70 27.52 6.39 C 28.23 7.38 28.47 8.35 28.25 9.31 C 28.02 10.27 27.46 11.03 26.55 11.61 C 26.22 11.80 25.79 12.01 25.25 12.23 C 24.71 12.45 24.18 12.67 23.64 12.88 C 23.11 13.09 22.65 13.29 22.28 13.50 C 21.91 13.71 21.71 13.92 21.70 14.11 C 21.66 14.42 21.88 14.78 22.35 15.19 C 22.82 15.59 23.32 15.99 23.86 16.36 C 24.53 16.87 25.27 17.50 26.10 18.24 C 26.92 18.99 27.52 19.64 27.91 20.19 C 28.34 20.81 28.55 21.46 28.54 22.14 C 28.53 22.82 28.34 23.42 27.98 23.92 C 27.62 24.43 27.12 24.74 26.47 24.85 C 25.82 24.96 25.07 24.77 24.22 24.29 C 23.76 24.02 23.18 23.50 22.49 22.73 C 21.79 21.96 20.98 21.08 20.06 20.09 C 19.52 19.54 19.04 19.03 18.60 18.56 C 18.17 18.08 17.80 18 17.51 18.31 C 17.30 18.55 17.19 19.04 17.18 19.78 C 17.16 20.52 17.16 21.35 17.20 22.27 C 17.24 23.20 17.23 24.07 17.18 24.88 C 17.12 26.03 16.86 26.93 16.40 27.61 C 15.93 28.28 15.23 28.61 14.29 28.61"/></g>
</svg>
